<svg id="Group_3195" data-name="Group 3195" xmlns="http://www.w3.org/2000/svg" xmlns:xlink="http://www.w3.org/1999/xlink" width="63.359" height="64.552" viewBox="0 0 63.359 64.552">
  <defs>
    <linearGradient id="linear-gradient" x1="-0.958" y1="0.5" x2="3.562" y2="0.5" gradientUnits="objectBoundingBox">
      <stop offset="0" stop-color="#b31fff"/>
      <stop offset="0.996" stop-color="#5921bf"/>
    </linearGradient>
    <linearGradient id="linear-gradient-2" x1="-2.18" y1="0.5" x2="2.34" y2="0.5" xlink:href="#linear-gradient"/>
    <linearGradient id="linear-gradient-3" x1="-0.042" y1="0.5" x2="0.974" y2="0.5" xlink:href="#linear-gradient"/>
  </defs>
  <path id="Path_7526" data-name="Path 7526" d="M2423.788,1414.054h3.279a2.133,2.133,0,0,1,1.59.606,1.4,1.4,0,0,1,.254,1.185,1.987,1.987,0,0,0-.02.269c0,1.108-1.143,1.274-1.825,1.274h-6.829a1.817,1.817,0,1,0,0,3.634h2.974v2.393a1.817,1.817,0,1,0,3.634,0v-2.393h.22c3.164,0,5.388-1.955,5.458-4.772a5,5,0,0,0-1.114-3.963,5.679,5.679,0,0,0-4.344-1.869h-3.279c-.682,0-1.827-.166-1.827-1.274a2.059,2.059,0,0,1,1.827-2.061h6.034a1.817,1.817,0,0,0,0-3.634h-2.975v-2.392a1.817,1.817,0,1,0-3.634,0v2.426a5.7,5.7,0,0,0-4.886,5.661C2418.327,1412.035,2420.573,1414.054,2423.788,1414.054Z" transform="translate(-2407.355 -1399.241)" fill="url(#linear-gradient)"/>
  <path id="Path_7527" data-name="Path 7527" d="M2447.731,1414.054h3.28a2.134,2.134,0,0,1,1.59.606,1.4,1.4,0,0,1,.254,1.185,1.841,1.841,0,0,0-.02.269c0,1.108-1.143,1.274-1.825,1.274h-6.829a1.817,1.817,0,0,0,0,3.634h2.974v2.393a1.817,1.817,0,1,0,3.634,0v-2.393h.22c3.163,0,5.388-1.955,5.458-4.772a5,5,0,0,0-1.114-3.963,5.679,5.679,0,0,0-4.344-1.869h-3.28c-.682,0-1.826-.166-1.826-1.274a2.059,2.059,0,0,1,1.826-2.061h6.034a1.817,1.817,0,0,0,0-3.634h-2.974v-2.392a1.817,1.817,0,0,0-3.634,0v2.426a5.7,5.7,0,0,0-4.885,5.661C2442.271,1412.035,2444.516,1414.054,2447.731,1414.054Z" transform="translate(-2413.895 -1399.241)" fill="url(#linear-gradient-2)"/>
  <path id="Path_7528" data-name="Path 7528" d="M2465.141,1433.035l-.71-.719a5.843,5.843,0,0,0-4.232-1.6h0a8.023,8.023,0,0,0-5.57,2.194l-12.245,11.494a6.032,6.032,0,0,0-5.986-4.289H2415.26c-3.391,0-6.017,2.982-6.486,3.549l-5.086,5.358a1.664,1.664,0,1,0,2.414,2.29l5.129-5.4c.031-.033.062-.068.09-.1.492-.613,2.273-2.364,3.939-2.364H2436.4a2.672,2.672,0,1,1,0,5.324h-12.379a1.664,1.664,0,1,0,0,3.328H2436.4a6.352,6.352,0,0,0,4.32-1.607,1.594,1.594,0,0,0,.289-.231L2457,1435.243a4.739,4.739,0,0,1,3.2-1.2h0a2.586,2.586,0,0,1,1.861.609l.71.719c.953.97.457,3.769-.914,5.164l-20.325,20.631a6.435,6.435,0,0,1-2.537.91h-21.342a1.664,1.664,0,0,0-1.226.538l-6.418,6.987a1.664,1.664,0,1,0,2.45,2.252l5.924-6.449h20.75a1.712,1.712,0,0,0,.259-.02c.524-.083,3.209-.56,4.512-1.883l20.326-20.632C2466.674,1440.38,2467.607,1435.545,2465.141,1433.035Z" transform="translate(-2403.231 -1407.838)" fill="url(#linear-gradient-3)"/>
</svg>
