<svg id="Group_3193" data-name="Group 3193" xmlns="http://www.w3.org/2000/svg" xmlns:xlink="http://www.w3.org/1999/xlink" width="68.808" height="67.236" viewBox="0 0 68.808 67.236">
  <defs>
    <linearGradient id="linear-gradient" x1="-0.031" y1="0.5" x2="1.097" y2="0.5" gradientUnits="objectBoundingBox">
      <stop offset="0" stop-color="#b31fff"/>
      <stop offset="0.996" stop-color="#5921bf"/>
    </linearGradient>
    <linearGradient id="linear-gradient-2" x1="-0.305" y1="0.5" x2="1.404" y2="0.5" xlink:href="#linear-gradient"/>
    <linearGradient id="linear-gradient-3" x1="-0.944" y1="0.5" x2="2.121" y2="0.5" xlink:href="#linear-gradient"/>
    <linearGradient id="linear-gradient-4" x1="-0.673" y1="0.5" x2="0.825" y2="0.5" xlink:href="#linear-gradient"/>
  </defs>
  <path id="Path_7518" data-name="Path 7518" d="M2059.394,1427.351a1.817,1.817,0,0,0-3.182,1.756,24.377,24.377,0,1,1-8.213-8.751,1.818,1.818,0,0,0,1.959-3.062,27.91,27.91,0,1,0,9.436,10.057Z" transform="translate(-2006.892 -1401.626)" fill="url(#linear-gradient)"/>
  <path id="Path_7519" data-name="Path 7519" d="M2048.074,1430.722a1.816,1.816,0,0,0-.717-2.467,18.3,18.3,0,0,0-11.843-2.044,18.45,18.45,0,1,0,19.864,10.808,1.817,1.817,0,1,0-3.329,1.457,14.968,14.968,0,0,1,1.06,3.605,14.833,14.833,0,1,1-7.5-10.64A1.816,1.816,0,0,0,2048.074,1430.722Z" transform="translate(-2010.469 -1405.2)" fill="url(#linear-gradient-2)"/>
  <path id="Path_7520" data-name="Path 7520" d="M2040.533,1440.9a1.817,1.817,0,1,0-.579-3.587,10.347,10.347,0,0,0,1.627,20.561,10.506,10.506,0,0,0,1.673-.135,10.307,10.307,0,0,0,8.588-8.707,1.817,1.817,0,0,0-3.6-.53,6.713,6.713,0,1,1-7.713-7.6Z" transform="translate(-2013.547 -1408.293)" fill="url(#linear-gradient-3)"/>
  <path id="Path_7521" data-name="Path 7521" d="M2085.694,1410.162a1.817,1.817,0,0,0-.922-1.37l-5.028-2.8,1.521-1.259a1.818,1.818,0,1,0-2.319-2.8l-1.28,1.061-1.875-4.486a1.818,1.818,0,0,0-2.913-.632l-10.728,9.951a1.817,1.817,0,0,0-.441,2.033l2.468,5.9-20.095,19.357a1.817,1.817,0,0,0,2.521,2.618l19.81-19.083,5.863,3.262a1.816,1.816,0,0,0,2.119-.255l10.729-9.951A1.82,1.82,0,0,0,2085.694,1410.162Zm-12.252-7.848,1.238,2.96-7.89,7.318-1.238-2.96Zm-.551,15.787-3.531-1.965,7.926-7.349,3.531,1.963Z" transform="translate(-2016.899 -1397.395)" fill="url(#linear-gradient-4)"/>
</svg>
