<svg id="Group_3192" data-name="Group 3192" xmlns="http://www.w3.org/2000/svg" xmlns:xlink="http://www.w3.org/1999/xlink" width="57.745" height="63.541" viewBox="0 0 57.745 63.541">
  <defs>
    <linearGradient id="linear-gradient" x1="-0.038" y1="0.5" x2="0.952" y2="0.5" gradientUnits="objectBoundingBox">
      <stop offset="0" stop-color="#b31fff"/>
      <stop offset="0.996" stop-color="#5921bf"/>
    </linearGradient>
    <linearGradient id="linear-gradient-2" x1="-0.398" y1="0.5" x2="0.869" y2="0.5" xlink:href="#linear-gradient"/>
  </defs>
  <path id="Path_7516" data-name="Path 7516" d="M1853,1418.649a2,2,0,0,0-1.351,2.479,25.714,25.714,0,0,1,.986,7.065,24.794,24.794,0,0,1-9.529,19.679c-.038.028-.073.056-.109.087l-11.745,9.178c.237-4.1-.02-4.376-.523-4.922a2.053,2.053,0,0,0-1.489-.654,23.819,23.819,0,0,1,0-47.63,22.868,22.868,0,0,1,13.978,4.741,2,2,0,1,0,2.422-3.175,26.833,26.833,0,0,0-16.4-5.56,27.826,27.826,0,0,0-1.92,55.549c-.058,1.5-.21,3.815-.376,5.832a2,2,0,0,0,3.22,1.736l15.365-12.006.034-.028a28.867,28.867,0,0,0,11.064-22.827,29.79,29.79,0,0,0-1.149-8.193A2,2,0,0,0,1853,1418.649Z" transform="translate(-1801.856 -1399.937)" fill="url(#linear-gradient)"/>
  <path id="Path_7517" data-name="Path 7517" d="M1864.64,1404.729a1.83,1.83,0,0,0-2.586.089l-26.645,28.561-9.712-12.125a1.83,1.83,0,1,0-2.856,2.287l11.034,13.778a1.83,1.83,0,0,0,1.359.685h.069a1.831,1.831,0,0,0,1.338-.582l28.089-30.107A1.83,1.83,0,0,0,1864.64,1404.729Z" transform="translate(-1807.478 -1401.112)" fill="url(#linear-gradient-2)"/>
</svg>
