<svg xmlns="http://www.w3.org/2000/svg" xmlns:xlink="http://www.w3.org/1999/xlink" width="65.247" height="65.248" viewBox="0 0 65.247 65.248">
  <defs>
    <linearGradient id="linear-gradient" x1="-0.505" y1="0.5" x2="1.522" y2="0.5" gradientUnits="objectBoundingBox">
      <stop offset="0" stop-color="#b31fff"/>
      <stop offset="0.996" stop-color="#5921bf"/>
    </linearGradient>
    <linearGradient id="linear-gradient-2" x1="0.01" y1="0.5" x2="0.998" y2="0.5" xlink:href="#linear-gradient"/>
    <linearGradient id="linear-gradient-3" x1="-10.096" y1="0.5" x2="6.789" y2="0.5" xlink:href="#linear-gradient"/>
    <linearGradient id="linear-gradient-4" x1="-1.457" y1="0.5" x2="2.489" y2="0.5" xlink:href="#linear-gradient"/>
  </defs>
  <g id="Group_3166" data-name="Group 3166" transform="translate(0.001)">
    <path id="Path_7535" data-name="Path 7535" d="M2011.6,1756.076a11.708,11.708,0,0,0-.739-3.862,8.143,8.143,0,0,0-4.653-4.652,11.687,11.687,0,0,0-3.862-.74c-1.7-.078-2.238-.1-6.559-.1s-4.863.018-6.56.1a11.682,11.682,0,0,0-3.862.74,8.137,8.137,0,0,0-4.653,4.652,11.664,11.664,0,0,0-.739,3.862c-.078,1.7-.1,2.239-.1,6.559s.019,4.863.1,6.56a11.667,11.667,0,0,0,.739,3.862,8.135,8.135,0,0,0,4.653,4.652,11.676,11.676,0,0,0,3.862.74c1.7.077,2.238.1,6.56.1s4.863-.019,6.559-.1a11.681,11.681,0,0,0,3.862-.74,8.141,8.141,0,0,0,4.653-4.652,11.711,11.711,0,0,0,.739-3.862c.078-1.7.1-2.238.1-6.56S2011.682,1757.772,2011.6,1756.076Zm-2.864,12.988a8.8,8.8,0,0,1-.548,2.954,5.264,5.264,0,0,1-3.02,3.02,8.811,8.811,0,0,1-2.954.547c-1.677.077-2.18.093-6.428.093s-4.751-.016-6.429-.093a8.817,8.817,0,0,1-2.954-.547,5.272,5.272,0,0,1-3.019-3.02,8.809,8.809,0,0,1-.548-2.954c-.077-1.677-.093-2.181-.093-6.429s.016-4.751.093-6.428a8.808,8.808,0,0,1,.548-2.954,5.263,5.263,0,0,1,3.019-3.02,8.816,8.816,0,0,1,2.954-.548c1.677-.077,2.18-.093,6.429-.093s4.751.016,6.428.093a8.81,8.81,0,0,1,2.954.548,5.262,5.262,0,0,1,3.02,3.02,8.8,8.8,0,0,1,.548,2.954c.077,1.677.093,2.18.093,6.428S2008.817,1767.386,2008.74,1769.064Z" transform="translate(-1963.168 -1729.731)" fill="url(#linear-gradient)"/>
    <path id="Path_7536" data-name="Path 7536" d="M1993.823,1792.978a32.624,32.624,0,1,1,32.623-32.624A32.661,32.661,0,0,1,1993.823,1792.978Zm0-61.67a29.045,29.045,0,1,0,29.045,29.045A29.079,29.079,0,0,0,1993.823,1731.309Z" transform="translate(-1961.2 -1727.73)" fill="url(#linear-gradient-2)"/>
    <path id="Path_7537" data-name="Path 7537" d="M2006.931,1756.7a1.909,1.909,0,1,1,1.909-1.909A1.909,1.909,0,0,1,2006.931,1756.7Z" transform="translate(-1965.816 -1730.379)" fill="url(#linear-gradient-3)"/>
    <path id="Path_7538" data-name="Path 7538" d="M1996.7,1755.377a8.17,8.17,0,1,0,8.169,8.169A8.169,8.169,0,0,0,1996.7,1755.377Zm0,13.473a5.3,5.3,0,1,1,5.3-5.3A5.3,5.3,0,0,1,1996.7,1768.85Z" transform="translate(-1964.079 -1730.642)" fill="url(#linear-gradient-4)"/>
  </g>
</svg>
