<svg xmlns="http://www.w3.org/2000/svg" xmlns:xlink="http://www.w3.org/1999/xlink" width="65.248" height="65.248" viewBox="0 0 65.248 65.248">
  <defs>
    <linearGradient id="linear-gradient" x1="-0.438" y1="0.5" x2="1.387" y2="0.5" gradientUnits="objectBoundingBox">
      <stop offset="0" stop-color="#b31fff"/>
      <stop offset="0.996" stop-color="#5921bf"/>
    </linearGradient>
    <linearGradient id="linear-gradient-2" x1="-0.006" y1="0.5" x2="0.979" y2="0.5" xlink:href="#linear-gradient"/>
  </defs>
  <g id="Group_3168" data-name="Group 3168" transform="translate(0.001)">
    <g id="Group_3172" data-name="Group 3172" transform="translate(-0.001 0)">
      <path id="Path_7541" data-name="Path 7541" d="M2186.075,1757.125a7.615,7.615,0,0,0-1.4-3.5,5.033,5.033,0,0,0-3.531-1.492c-4.929-.357-12.326-.357-12.326-.357h-.015s-7.4,0-12.326.357a5.032,5.032,0,0,0-3.53,1.492,7.621,7.621,0,0,0-1.4,3.5,53.408,53.408,0,0,0-.352,5.7v2.673a53.4,53.4,0,0,0,.352,5.7,7.622,7.622,0,0,0,1.4,3.5,5.972,5.972,0,0,0,3.885,1.506c2.818.27,11.979.354,11.979.354s7.4-.012,12.333-.368a5.042,5.042,0,0,0,3.531-1.492,7.616,7.616,0,0,0,1.4-3.5,53.257,53.257,0,0,0,.353-5.7v-2.673A53.262,53.262,0,0,0,2186.075,1757.125Z" transform="translate(-2136.188 -1731.545)" fill="url(#linear-gradient)"/>
      <path id="Path_7542" data-name="Path 7542" d="M2167.045,1794.411a32.624,32.624,0,1,1,32.624-32.624A32.661,32.661,0,0,1,2167.045,1794.411Zm0-61.669a29.045,29.045,0,1,0,29.045,29.045A29.078,29.078,0,0,0,2167.045,1732.742Z" transform="translate(-2134.421 -1729.163)" fill="url(#linear-gradient-2)"/>
    </g>
    <path id="Lozenge" d="M0,9.9,9.52,4.966,0,0Z" transform="translate(28.984 27.675)" fill="#fff"/>
  </g>
</svg>
