<svg height="67.971" viewBox="0 0 61.774 67.971" width="61.774" xmlns="http://www.w3.org/2000/svg" xmlns:xlink="http://www.w3.org/1999/xlink"><linearGradient id="a" gradientUnits="objectBoundingBox" x1="-3.432" x2="13.277" y1=".5" y2=".5"><stop offset="0" stop-color="#b31fff"/><stop offset=".996" stop-color="#5921bf"/></linearGradient><linearGradient id="b" x1="-2.685" x2="13.398" xlink:href="#a" y1=".5" y2=".5"/><linearGradient id="c" x1="-2.505" x2="13.583" xlink:href="#a" y1=".5" y2=".5"/><linearGradient id="d" x1="-1.337" x2="14.901" xlink:href="#a" y1=".5" y2=".5"/><linearGradient id="e" x1="-4.242" x2="11.825" xlink:href="#a" y1=".5" y2=".5"/><linearGradient id="f" x1="-1.207" x2="15.057" xlink:href="#a" y1=".5" y2=".5"/><linearGradient id="g" x1="-4.84" x2="11.23" xlink:href="#a" y1=".5" y2=".5"/><linearGradient id="h" x1="-.53" x2="15.983" xlink:href="#a" y1=".5" y2=".5"/><linearGradient id="i" x1="-4.056" x2="12.011" xlink:href="#a" y1=".5" y2=".5"/><linearGradient id="j" x1="-.482" x2="16.068" xlink:href="#a" y1=".5" y2=".5"/><linearGradient id="k" x1="-13.49" x2="2.823" xlink:href="#a" y1=".5" y2=".5"/><linearGradient id="l" x1="-12.075" x2="4.03" xlink:href="#a" y1=".5" y2=".5"/><linearGradient id="m" x1="-11.102" x2="4.964" xlink:href="#a" y1=".5" y2=".5"/><linearGradient id="n" x1="-10.509" x2="5.561" xlink:href="#a" y1=".5" y2=".5"/><linearGradient id="o" x1="-5.808" x2="10.259" xlink:href="#a" y1=".5" y2=".5"/><linearGradient id="p" x1="-14.356" x2="2.282" xlink:href="#a" y1=".5" y2=".5"/><linearGradient id="q" x1="-13.901" x2="2.522" xlink:href="#a" y1=".5" y2=".5"/><linearGradient id="r" x1="-12.657" x2="3.513" xlink:href="#a" y1=".5" y2=".5"/><linearGradient id="s" x1="-7.973" x2="8.097" xlink:href="#a" y1=".5" y2=".5"/><linearGradient id="t" x1="-6.405" x2="9.662" xlink:href="#a" y1=".5" y2=".5"/><linearGradient id="u" x1="-9.539" x2="6.531" xlink:href="#a" y1=".5" y2=".5"/><linearGradient id="v" x1="-7.375" x2="8.693" xlink:href="#a" y1=".5" y2=".5"/><linearGradient id="w" x1="-8.941" x2="7.126" xlink:href="#a" y1=".5" y2=".5"/><linearGradient id="x" x1="-5.833" x2="10.877" xlink:href="#a" y1=".5" y2=".5"/><linearGradient id="y" x1="-.993" x2="1.273" xlink:href="#a" y1=".5" y2=".5"/><path d="m239.8 2723.452a2.069 2.069 0 1 0 2.929 0 2.148 2.148 0 0 0 -2.929 0z" fill="url(#a)" transform="translate(-227.017 -2659.014)"/><path d="m239.989 2692.708a2.067 2.067 0 0 0 -1.558-2.475l-.161-.036a2.068 2.068 0 0 0 -.916 4.034l.16.036a2.04 2.04 0 0 0 .46.053 2.069 2.069 0 0 0 2.015-1.612z" fill="url(#b)" transform="translate(-226.22 -2651.461)"/><path d="m237.415 2661.952.129-.039a2.068 2.068 0 0 0 -1.159-3.971l-.187.055a2.069 2.069 0 1 0 1.217 3.954z" fill="url(#c)" transform="translate(-225.987 -2644.01)"/><path d="m231.643 2686.586a2.069 2.069 0 0 0 -2.864 2.987l.152.141a2.068 2.068 0 0 0 2.8-3.044z" fill="url(#d)" transform="translate(-224.465 -2650.507)"/><path d="m248.77 2692.478a2.285 2.285 0 0 0 -2.068-2.308h-.164a2.321 2.321 0 0 0 0 4.615h.164a2.286 2.286 0 0 0 2.068-2.307z" fill="url(#e)" transform="translate(-228.233 -2651.467)"/><path d="m229.479 2666.628a2.062 2.062 0 0 0 1.524-.668l.083-.089a2.069 2.069 0 1 0 -2.987-2.863l-.142.151a2.069 2.069 0 0 0 1.522 3.469z" fill="url(#f)" transform="translate(-224.297 -2645.052)"/><path d="m250.038 2723.17h-.165a1.928 1.928 0 1 0 0 3.846h.165a1.928 1.928 0 1 0 0-3.846z" fill="url(#g)" transform="translate(-229.003 -2659.083)"/><path d="m227.721 2680.242-.039-.13a2.068 2.068 0 0 0 -3.971 1.161l.055.186a2.069 2.069 0 0 0 3.955-1.216z" fill="url(#h)" transform="translate(-223.423 -2648.802)"/><path d="m245.5 2661.016h.164a1.928 1.928 0 1 0 0-3.846h-.164a1.928 1.928 0 1 0 0 3.846z" fill="url(#i)" transform="translate(-227.992 -2643.852)"/><path d="m224.973 2674.216a2.022 2.022 0 0 0 .461.052 2.071 2.071 0 0 0 2.015-1.612l.03-.13a2.068 2.068 0 1 0 -4.02-.974l-.045.188a2.067 2.067 0 0 0 1.559 2.476z" fill="url(#j)" transform="translate(-223.362 -2646.805)"/><path d="m295.863 2697.334a2.069 2.069 0 0 0 -.4 2.9l.1.131a2.069 2.069 0 0 0 3.3-2.5l-.1-.131a2.069 2.069 0 0 0 -2.9-.4z" fill="url(#k)" transform="translate(-239.905 -2653.023)"/><path d="m292.244 2694.659a2.069 2.069 0 0 0 -1.122-2.7l-.181-.072a2.068 2.068 0 1 0 -1.525 3.845l.125.051a2.066 2.066 0 0 0 2.7-1.123z" fill="url(#l)" transform="translate(-238.304 -2651.829)"/><path d="m284.945 2722.8-.161.008a2.069 2.069 0 0 0 .119 4.135h.123l.167-.011a2.068 2.068 0 0 0 -.248-4.128z" fill="url(#m)" transform="translate(-237.087 -2658.997)"/><path d="m283.8 2692.478a2.286 2.286 0 0 0 -2.068-2.308h-.164a2.321 2.321 0 0 0 0 4.615h.164a2.286 2.286 0 0 0 2.068-2.307z" fill="url(#n)" transform="translate(-236.317 -2651.467)"/><path d="m257.528 2692.478a2.286 2.286 0 0 0 -2.068-2.308h-.165a2.322 2.322 0 0 0 0 4.615h.165a2.286 2.286 0 0 0 2.068-2.307z" fill="url(#o)" transform="translate(-230.254 -2651.467)"/><path d="m302.394 2706.789a2.068 2.068 0 1 0 -4.115.43l.013.13a2.068 2.068 0 0 0 2.058 1.887c.062 0 .122 0 .184-.008a2.069 2.069 0 0 0 1.88-2.242z" fill="url(#p)" transform="translate(-240.648 -2654.874)"/><path d="m299.809 2713.666a2.067 2.067 0 0 0 -2.751 1l-.064.138a2.068 2.068 0 1 0 3.735 1.775l.077-.16a2.069 2.069 0 0 0 -.997-2.753z" fill="url(#q)" transform="translate(-240.308 -2656.844)"/><path d="m292.118 2720.387-.1.067a2.069 2.069 0 1 0 2.254 3.469l.172-.113a2.069 2.069 0 0 0 -2.323-3.423z" fill="url(#r)" transform="translate(-238.988 -2658.358)"/><path d="m267.554 2723.17h-.164a1.928 1.928 0 1 0 0 3.846h.164a1.928 1.928 0 1 0 0-3.846z" fill="url(#s)" transform="translate(-233.045 -2659.083)"/><path d="m258.8 2723.17h-.165a1.928 1.928 0 1 0 0 3.846h.165a1.928 1.928 0 1 0 0-3.846z" fill="url(#t)" transform="translate(-231.024 -2659.083)"/><path d="m276.312 2723.17h-.165a1.928 1.928 0 1 0 0 3.846h.165a1.928 1.928 0 1 0 0-3.846z" fill="url(#u)" transform="translate(-235.066 -2659.083)"/><path d="m266.286 2692.478a2.287 2.287 0 0 0 -2.069-2.308h-.164a2.322 2.322 0 0 0 0 4.615h.164a2.287 2.287 0 0 0 2.069-2.307z" fill="url(#v)" transform="translate(-232.275 -2651.467)"/><path d="m275.045 2692.478a2.287 2.287 0 0 0 -2.068-2.308h-.165a2.322 2.322 0 0 0 0 4.615h.165a2.287 2.287 0 0 0 2.068-2.307z" fill="url(#w)" transform="translate(-234.296 -2651.467)"/><path d="m254.176 2661.37a2.072 2.072 0 0 0 1.465-3.534 2.149 2.149 0 0 0 -2.93 0 2.069 2.069 0 0 0 1.465 3.534z" fill="url(#x)" transform="translate(-229.996 -2643.872)"/><path d="m260.742 2670.961a1.731 1.731 0 0 0 1.878.208l27.045-13.64a1.726 1.726 0 0 0 -.655-3.265l-26.349-14.2a1.73 1.73 0 0 0 -2.488 1.987l3.766 13.555-3.766 13.555a1.731 1.731 0 0 0 .569 1.8zm6.236-13.364h14.862l-17.285 8.718zm14.5-3.461h-14.354l-2.528-9.1z" fill="url(#y)" transform="translate(-231.843 -2639.856)"/></svg>