<svg height="77.34" viewBox="0 0 65.384 77.34" width="65.384" xmlns="http://www.w3.org/2000/svg" xmlns:xlink="http://www.w3.org/1999/xlink"><linearGradient id="a" gradientUnits="objectBoundingBox" x1="-11.04" x2="9.761" y1=".5" y2=".5"><stop offset="0" stop-color="#b31fff"/><stop offset=".996" stop-color="#5921bf"/></linearGradient><linearGradient id="b" x1="-1.71" x2="2.237" xlink:href="#a" y1=".5" y2=".5"/><linearGradient id="c" x1="-.308" x2="1.12" xlink:href="#a" y1=".5" y2=".5"/><linearGradient id="d" x1="-1.466" x2="2.007" xlink:href="#a" y1=".5" y2=".5"/><linearGradient id="e" x1="-8.906" x2=".338" xlink:href="#a" y1=".5" y2=".5"/><linearGradient id="f" x1="-.416" x2="7.904" xlink:href="#a" y1=".5" y2=".5"/><linearGradient id="g" x1="-1.648" x2="8.449" xlink:href="#a" y1=".5" y2=".5"/><linearGradient id="h" x1="-8.476" x2="1.618" xlink:href="#a" y1=".5" y2=".5"/><linearGradient id="i" x1="-8.655" x2="1.63" xlink:href="#a" y1=".5" y2=".5"/><linearGradient id="j" x1="-1.698" x2="8.59" xlink:href="#a" y1=".5" y2=".5"/><path d="m761.928 2642.228a1.539 1.539 0 0 0 1.538-1.539v-5.389a1.538 1.538 0 1 0 -3.077 0v5.385a1.538 1.538 0 0 0 1.539 1.543z" fill="url(#a)" transform="translate(-729.621 -2633.766)"/><path d="m766.212 2718.332-12.369 2.341a1.923 1.923 0 1 0 .715 3.779l12.369-2.341a1.923 1.923 0 0 0 -.715-3.779z" fill="url(#b)" transform="translate(-727.749 -2653.273)"/><path d="m766.212 2726.3-12.369 2.34a1.923 1.923 0 0 0 .355 3.813 1.9 1.9 0 0 0 .359-.034l12.369-2.34a1.923 1.923 0 0 0 -.715-3.779z" fill="url(#b)" transform="translate(-727.749 -2655.113)"/><path d="m756.589 2649.914a22.446 22.446 0 0 0 -22.416 22.426 22.079 22.079 0 0 0 8.835 18.1c3.85 3.013 3.658 6.039 3.652 6.133a1.923 1.923 0 0 0 -.013.222v3.97a1.921 1.921 0 0 0 1.923 1.923 2.046 2.046 0 0 0 .262-.018l14.614-2.005a1.934 1.934 0 0 0 1.659-2 8.792 8.792 0 0 1 3.217-6.974c7.578-4.833 10.678-10.444 10.678-19.351a22.444 22.444 0 0 0 -22.411-22.426zm9.609 38.564c-.04.025-.079.052-.117.081a12.282 12.282 0 0 0 -4.732 8.51l-10.856 1.49v-1.7c.053-.91.034-5.44-5.155-9.479l-.066-.049a18.228 18.228 0 0 1 -7.254-14.99 18.567 18.567 0 1 1 37.134 0c.001 7.624-2.427 11.998-8.952 16.138z" fill="url(#c)" transform="translate(-723.571 -2637.493)"/><path d="m763.144 2674.288h-5.154a2.783 2.783 0 0 1 0-5.551h6.637c.094 0 1.092.022 1.288.029a1.892 1.892 0 0 0 2.072-1.778 1.834 1.834 0 0 0 -1.884-1.938c-.115-.007-1.363-.013-1.476-.013h-2.176v-.952a1.858 1.858 0 1 0 -3.7 0v.952h-.762a6.477 6.477 0 1 0 0 12.951h5.154a2.782 2.782 0 0 1 0 5.55h-6.891c-.126 0-1.2-.017-1.254-.017a1.817 1.817 0 0 0 -2.053 1.787 1.905 1.905 0 0 0 1.974 1.937c.061.008 1.06-.006 1.245-.006h2.586v.89a1.857 1.857 0 1 0 3.7 0v-.89h.693a6.477 6.477 0 1 0 0-12.95z" fill="url(#d)" transform="translate(-727.535 -2640.294)"/><path d="m801.775 2675.766h-3.846a1.538 1.538 0 1 0 0 3.077h3.846a1.538 1.538 0 1 0 0-3.077z" fill="url(#e)" transform="translate(-737.929 -2643.458)"/><path d="m726.544 2675.766h-4.615a1.538 1.538 0 1 0 0 3.077h4.615a1.538 1.538 0 1 0 0-3.077z" fill="url(#f)" transform="translate(-720.39 -2643.458)"/><path d="m733.525 2653.32a1.538 1.538 0 1 0 2.175-2.175l-3.262-3.263a1.538 1.538 0 1 0 -2.175 2.175z" fill="url(#g)" transform="translate(-722.564 -2636.919)"/><path d="m788.722 2701.613a1.539 1.539 0 0 0 -2.175 2.176l3.264 3.263a1.539 1.539 0 0 0 2.175-2.177z" fill="url(#h)" transform="translate(-735.553 -2649.319)"/><path d="m789.846 2648.035-3.146 3.145a1.538 1.538 0 1 0 2.175 2.176l3.146-3.145a1.539 1.539 0 0 0 -2.175-2.176z" fill="url(#i)" transform="translate(-735.588 -2636.955)"/><path d="m733.56 2700.841-3.145 3.145a1.538 1.538 0 1 0 2.175 2.176l3.145-3.144a1.538 1.538 0 1 0 -2.175-2.176z" fill="url(#j)" transform="translate(-722.6 -2649.141)"/></svg>