<svg height="20" viewBox="0 0 40 20" width="40" xmlns="http://www.w3.org/2000/svg"><path d="m39 2h-8c-.55 0-1-.45-1-1s.45-1 1-1h8c.55 0 1 .45 1 1s-.45 1-1 1zm-14 0h-24c-.55 0-1-.45-1-1s.45-1 1-1h24c.55 0 1 .45 1 1s-.45 1-1 1zm-22 6c-.55 0-1-.45-1-1s.45-1 1-1h8c.55 0 1 .45 1 1s-.45 1-1 1zm-2 4h24c.55 0 1 .45 1 1s-.45 1-1 1h-24c-.55 0-1-.45-1-1s.45-1 1-1zm2 6h14c.55 0 1 .45 1 1s-.45 1-1 1h-14c-.55 0-1-.45-1-1s.45-1 1-1zm20 0h14c.55 0 1 .45 1 1s-.45 1-1 1h-14c-.55 0-1-.45-1-1s.45-1 1-1zm-6-10c-.55 0-1-.45-1-1s.45-1 1-1h20c.55 0 1 .45 1 1s-.45 1-1 1zm13 5c0-.55.45-1 1-1h8c.55 0 1 .45 1 1s-.45 1-1 1h-8c-.55 0-1-.45-1-1z" fill="#796886"/></svg>