<svg height="39" viewBox="0 0 49 39" width="49" xmlns="http://www.w3.org/2000/svg"><path d="m35.04 28.99c-.01 0-.75 0-1.99 0-.01 0-.03.01-.05.01-.55 0-1-.45-1-1s.45-1 1-1v-.01h2c6.71-.25 12-5.74 12-12.49 0-6.89-5.61-12.5-12.5-12.5-5.52 0-10.46 3.7-12 9.01-.08.27-.27.5-.53.62-.26.13-.56.13-.83.02-1-.43-2.06-.65-3.15-.65-3.53 0-6.69 2.37-7.68 5.76-.08.28-.27.5-.53.63-.26.12-.56.12-.82.01-.62-.26-1.28-.4-1.96-.4-2.76 0-5 2.24-5 5s2.24 5 5 5h2c.55 0 1 .45 1 1s-.45 1-1 1c-.71 0-1.38 0-2 0-3.86 0-7-3.14-7-7s3.14-7 7-7c.59 0 1.17.07 1.74.22 1.51-3.71 5.18-6.22 9.25-6.22 1 0 1.98.15 2.93.44 2.09-5.61 7.53-9.44 13.58-9.44 7.99 0 14.5 6.5 14.5 14.5 0 7.83-6.13 14.2-13.96 14.49zm-22.87 3.88c.57.34.77 1.07.44 1.64-.33.58-1.07.77-1.64.44s-.77-1.06-.44-1.64c.33-.57 1.07-.77 1.64-.44zm3.42-5.92c.58.33.77 1.06.44 1.64-.33.57-1.06.77-1.64.44-.57-.34-.77-1.07-.44-1.64.33-.58 1.07-.77 1.64-.44zm.86 8.92c.58.34.77 1.07.44 1.64-.33.58-1.06.77-1.64.44-.57-.33-.77-1.06-.44-1.64.33-.57 1.07-.77 1.64-.44zm2.55-14.82c.57.33.77 1.06.44 1.64-.33.57-1.07.77-1.64.44-.58-.34-.77-1.07-.44-1.64.33-.58 1.06-.77 1.64-.44zm.87 8.9c.58.33.77 1.06.44 1.64-.33.57-1.06.77-1.64.44-.57-.34-.77-1.07-.44-1.64.34-.58 1.07-.77 1.64-.44zm3.41-5.9c.57.33.77 1.06.44 1.64-.33.57-1.07.77-1.64.44-.57-.34-.77-1.07-.44-1.64.33-.58 1.07-.77 1.64-.44zm.89 8.82c.57.34.77 1.07.44 1.64-.33.58-1.07.77-1.64.44s-.77-1.06-.44-1.64c.33-.57 1.07-.77 1.64-.44zm3.42-5.92c.58.33.77 1.06.44 1.64-.33.57-1.06.77-1.64.44-.57-.34-.77-1.07-.44-1.64.33-.58 1.07-.77 1.64-.44zm3.41-5.9c.57.33.77 1.06.44 1.64-.33.57-1.07.77-1.64.44-.58-.34-.77-1.07-.44-1.64.33-.58 1.06-.77 1.64-.44z" fill="#796886"/></svg>