<svg height="49" viewBox="0 0 54 49" width="54" xmlns="http://www.w3.org/2000/svg"><path d="m40.04 38.99c-.01 0-.75 0-1.99 0-.01 0-.03.01-.05.01-.55 0-1-.45-1-1s.45-1 1-1v-.01h2c6.71-.25 12-5.74 12-12.49 0-6.89-5.61-12.5-12.5-12.5-5.52 0-10.46 3.7-12 9.01-.08.27-.27.5-.53.62-.26.13-.56.13-.83.02-1-.43-2.06-.65-3.15-.65-3.53 0-6.69 2.37-7.68 5.76-.08.28-.27.5-.53.63-.26.12-.56.12-.82.01-.62-.26-1.28-.4-1.96-.4-2.76 0-5 2.24-5 5s2.24 5 5 5h2c.55 0 1 .45 1 1s-.45 1-1 1c-.71 0-1.38 0-2 0-3.86 0-7-3.14-7-7 0-3.66 2.83-6.64 6.42-6.94-.89-1.49-1.42-3.21-1.42-5.06 0-5.53 4.48-10 10-10 3.68 0 6.87 2 8.61 4.96 2.7-3.07 6.64-4.96 10.89-4.96 7.99 0 14.5 6.5 14.5 14.5 0 7.83-6.13 14.2-13.96 14.49zm-20.04-26.99c-4.42 0-8 3.58-8 8 0 1.92.7 3.65 1.83 5.03 1.57-3.6 5.16-6.03 9.16-6.03 1 0 1.98.15 2.93.44.36-.97.82-1.87 1.36-2.72-1.25-2.78-4.03-4.72-7.28-4.72zm9.9-.49c-.39.4-1.02.4-1.41 0-.4-.39-.4-1.02 0-1.41l4.24-4.24c.39-.39 1.02-.39 1.41 0s.39 1.02 0 1.41zm-9.9-3.51c-.55 0-1-.45-1-1v-6c0-.55.45-1 1-1s1 .45 1 1v6c0 .55-.45 1-1 1zm-9.89 3.51-4.25-4.24c-.39-.39-.39-1.02 0-1.42.39-.39 1.03-.39 1.42 0l4.24 4.25c.39.39.39 1.02 0 1.41s-1.02.39-1.41 0zm-2.11 8.49c0 .55-.44 1-1 1h-6c-.55 0-1-.45-1-1s.45-1 1-1h6c.56 0 1 .45 1 1zm10.01 21.47c-.36 1.41-.15 2.22-.64 3.09-.28.48-.88.65-1.35.37-.48-.27-.63-.88-.36-1.36.5-.87 1.31-1.09 2.35-2.1zm2.98-5.21c-.35 1.42-.14 2.23-.64 3.1-.27.48-.88.65-1.35.37-.47-.27-.63-.88-.35-1.36.5-.87 1.31-1.09 2.34-2.11zm1.28 8.21c-.35 1.41-.14 2.22-.64 3.09-.27.48-.88.65-1.35.37-.47-.27-.63-.88-.35-1.36.49-.87 1.3-1.09 2.34-2.1zm-.63-11.3c.49-.87 1.3-1.09 2.34-2.11-.35 1.41-.14 2.23-.64 3.1-.27.48-.88.64-1.35.37s-.63-.88-.35-1.36zm3.62 6.09c-.36 1.42-.14 2.23-.64 3.1-.28.48-.88.65-1.35.37-.47-.27-.63-.88-.36-1.36.5-.87 1.31-1.09 2.35-2.11zm2.99-5.2c-.36 1.42-.15 2.23-.64 3.1-.28.48-.88.64-1.35.37-.48-.27-.63-.88-.36-1.36.5-.87 1.31-1.09 2.35-2.11zm1.76 7.41c-.36 1.41-.15 2.22-.64 3.09-.28.48-.88.65-1.35.37-.48-.27-.63-.88-.36-1.36.5-.87 1.31-1.09 2.35-2.1zm2.98-5.21c-.35 1.42-.14 2.23-.64 3.1-.27.48-.88.65-1.35.37-.47-.27-.63-.88-.35-1.36.5-.87 1.31-1.09 2.34-2.11zm2.99-5.2c-.35 1.41-.14 2.23-.64 3.1-.27.48-.88.64-1.35.37s-.63-.88-.35-1.36c.49-.87 1.3-1.09 2.34-2.11z" fill="#796886"/></svg>