<svg height="39" viewBox="0 0 49 39" width="49" xmlns="http://www.w3.org/2000/svg"><path d="m35.04 28.99c-.01 0-.75 0-1.99 0-.01 0-.03.01-.05.01-.55 0-1-.45-1-1s.45-1 1-1v-.01h2c6.71-.25 12-5.74 12-12.49 0-6.89-5.61-12.5-12.5-12.5-5.52 0-10.46 3.7-12 9.01-.08.27-.27.5-.53.62-.26.13-.56.13-.83.02-1-.43-2.06-.65-3.15-.65-3.53 0-6.69 2.37-7.68 5.76-.08.28-.27.5-.53.63-.26.12-.56.12-.82.01-.62-.26-1.28-.4-1.96-.4-2.76 0-5 2.24-5 5s2.24 5 5 5h2c.55 0 1 .45 1 1s-.45 1-1 1c-.71 0-1.38 0-2 0-3.86 0-7-3.14-7-7s3.14-7 7-7c.59 0 1.17.07 1.74.22 1.51-3.71 5.18-6.22 9.25-6.22 1 0 1.98.15 2.93.44 2.09-5.61 7.53-9.44 13.58-9.44 7.99 0 14.5 6.5 14.5 14.5 0 7.83-6.13 14.2-13.96 14.49zm-22.03 2.48c-.36 1.41-.15 2.22-.64 3.09-.28.48-.88.65-1.35.37-.48-.27-.63-.88-.36-1.36.5-.87 1.31-1.09 2.35-2.1zm2.98-5.21c-.35 1.42-.14 2.23-.64 3.1-.27.48-.88.65-1.35.37-.47-.27-.63-.88-.35-1.36.5-.87 1.31-1.09 2.34-2.11zm1.28 8.21c-.35 1.41-.14 2.22-.64 3.09-.27.48-.88.65-1.35.37-.47-.27-.63-.88-.35-1.36.49-.87 1.3-1.09 2.34-2.1zm-.63-11.3c.49-.87 1.3-1.09 2.34-2.11-.35 1.41-.14 2.23-.64 3.1-.27.48-.88.64-1.35.37s-.63-.88-.35-1.36zm3.62 6.09c-.36 1.42-.14 2.23-.64 3.1-.28.48-.88.65-1.35.37-.47-.27-.63-.88-.36-1.36.5-.87 1.31-1.09 2.35-2.11zm2.99-5.2c-.36 1.41-.15 2.23-.64 3.1-.28.48-.88.64-1.35.37-.48-.27-.63-.88-.36-1.36.5-.87 1.31-1.09 2.35-2.11zm1.76 7.41c-.36 1.41-.15 2.22-.64 3.09-.28.48-.88.65-1.35.37-.48-.27-.63-.88-.36-1.36.5-.87 1.31-1.09 2.35-2.1zm2.98-5.21c-.35 1.42-.14 2.23-.64 3.1-.27.48-.88.65-1.35.37-.47-.27-.63-.88-.35-1.36.5-.87 1.31-1.09 2.34-2.11zm2.99-5.2c-.35 1.41-.14 2.23-.64 3.1-.27.48-.88.64-1.35.37s-.63-.88-.35-1.36c.49-.87 1.3-1.09 2.34-2.11z" fill="#796886"/></svg>