<svg height="26" viewBox="0 0 24 26" width="24" xmlns="http://www.w3.org/2000/svg"><path d="m10.9 26c-4.21 0-8.19-2.04-10.65-5.46-.23-.32-.25-.73-.06-1.07s.55-.53.94-.51l.17.01c.18.01.35.03.54.03 6.1 0 11.07-4.94 11.07-11.01 0-2.3-.71-4.5-2.06-6.38-.23-.32-.25-.73-.07-1.07.19-.34.56-.54.95-.51 6.87.43 12.26 6.12 12.26 12.96 0 7.17-5.88 13.01-13.09 13.01zm-7.66-5.08c2.04 1.96 4.79 3.08 7.66 3.08 6.1 0 11.07-4.94 11.07-11.01 0-5.09-3.53-9.44-8.35-10.65.86 1.75 1.31 3.67 1.31 5.65 0 6.7-5.13 12.24-11.69 12.93z" fill="#796886"/></svg>