<svg height="40" viewBox="0 0 49 40" width="49" xmlns="http://www.w3.org/2000/svg"><path d="m35.04 28.99c-.01 0-.37 0-.98 0-.02 0-.04.01-.06.01-.55 0-1-.45-1-1s.45-1 1-1v-.01h1c6.71-.25 12-5.74 12-12.49 0-6.89-5.61-12.5-12.5-12.5-5.52 0-10.46 3.7-12 9.01-.08.27-.27.5-.53.62-.26.13-.56.13-.83.02-1-.43-2.06-.65-3.15-.65-3.53 0-6.69 2.37-7.68 5.76-.08.28-.27.5-.53.63-.26.12-.56.12-.82.01-.62-.26-1.28-.4-1.96-.4-2.76 0-5 2.24-5 5s2.24 5 5 5h2c.55 0 1 .45 1 1s-.45 1-1 1c-.71 0-1.38 0-2 0-3.86 0-7-3.14-7-7s3.14-7 7-7c.59 0 1.17.07 1.74.22 1.51-3.71 5.18-6.22 9.25-6.22 1 0 1.98.15 2.93.44 2.09-5.61 7.53-9.44 13.58-9.44 7.99 0 14.5 6.5 14.5 14.5 0 7.83-6.13 14.2-13.96 14.49zm-25.53 4.99h1.13l-.56-.98c-.14-.24-.06-.54.18-.68s.55-.06.68.18l.57.98.57-.98c.14-.24.44-.32.68-.18s.32.44.18.68l-.56.98h1.13c.28 0 .5.23.5.5 0 .28-.22.5-.5.5h-1.13l.56.98c.14.24.06.55-.18.69s-.54.05-.68-.19l-.56-.96c-.01 0-.01 0-.02 0l-.56.96c-.13.24-.44.33-.68.19s-.32-.45-.18-.69l.55-.96s0-.01 0-.02h-1.12c-.28 0-.5-.22-.5-.5 0-.27.22-.5.5-.5zm5.02 3h1.14l-.57-.98c-.14-.24-.06-.54.18-.68s.55-.06.69.18l.56.98.57-.98c.14-.24.44-.32.68-.18s.32.44.19.68l-.57.98h1.13c.28 0 .5.23.5.5 0 .28-.22.5-.5.5h-1.13l.57.98c.13.24.05.55-.19.69s-.54.05-.68-.19l-.56-.96c-.01 0-.01 0-.02 0l-.55.96c-.14.24-.45.33-.69.19s-.32-.45-.18-.69l.56-.96c-.01 0-.01-.01-.01-.02h-1.12c-.27 0-.5-.22-.5-.5 0-.27.23-.5.5-.5zm3.72-3.32c-.24-.14-.33-.45-.19-.68l.56-.97s0-.01-.01-.02h-1.11c-.28 0-.5-.22-.5-.5 0-.27.22-.5.5-.5h1.13l-.57-.98c-.14-.24-.05-.54.19-.68s.54-.06.68.18l.57.98.56-.98c.14-.24.45-.32.69-.18s.32.44.18.68l-.57.98h1.14c.27 0 .5.23.5.5 0 .28-.23.5-.5.5h-1.14l.57.99c.14.23.06.54-.18.68s-.55.05-.69-.18l-.56-.97s-.01 0-.02 0l-.55.97c-.14.23-.44.32-.68.18zm4.23.32h1.14l-.57-.98c-.14-.24-.06-.54.18-.68s.55-.06.69.18l.56.98.57-.98c.14-.24.44-.32.68-.18s.32.44.19.68l-.57.98h1.13c.28 0 .5.23.5.5 0 .28-.22.5-.5.5h-1.13l.57.98c.13.24.05.55-.19.69s-.54.05-.68-.19l-.56-.96c-.01 0-.01 0-.02 0l-.55.96c-.14.24-.45.33-.69.19s-.32-.45-.18-.69l.56-.96c-.01 0-.01-.01-.01-.02h-1.12c-.27 0-.5-.22-.5-.5 0-.27.23-.5.5-.5zm-5.48-5.49c0 .28-.22.5-.5.5h-1.13l.57.99c.14.23.05.54-.19.68-.23.14-.54.05-.68-.18l-.56-.97s-.01 0-.02 0l-.55.97c-.14.23-.45.32-.69.18-.23-.14-.32-.45-.18-.68l.56-.97c-.01 0 0-.01-.01-.02h-1.12c-.27 0-.5-.22-.5-.5 0-.27.23-.5.5-.5h1.14l-.57-.98c-.14-.24-.05-.54.18-.68.24-.14.55-.06.69.18l.56.98.57-.98c.14-.24.45-.32.68-.18.24.14.33.44.19.68l-.57.98h1.13c.28 0 .5.23.5.5zm4.02-6.02c0 .28-.23.5-.5.5h-1.14l.57.98c.14.24.06.55-.18.68-.24.14-.55.06-.68-.18l-.56-.97c-.01 0-.02.01-.02.01l-.56.96c-.14.24-.44.32-.68.18-.24-.13-.32-.44-.18-.68l.55-.96c0-.01 0-.01 0-.02h-1.12c-.28 0-.5-.22-.5-.5s.22-.5.5-.5h1.13l-.56-.98c-.14-.24-.06-.55.18-.69.24-.13.54-.05.68.19l.57.98.57-.98c.13-.24.44-.32.68-.19.24.14.32.45.18.69l-.57.98h1.14c.27 0 .5.22.5.5zm4.99 3c0 .28-.22.5-.5.5h-1.13l.56.98c.14.24.06.55-.18.69-.24.13-.55.05-.68-.19l-.56-.97c-.01 0-.01.01-.02.01l-.56.96c-.14.24-.44.32-.68.19-.24-.14-.32-.45-.18-.69l.55-.96c0-.01 0-.01 0-.02h-1.12c-.28 0-.5-.22-.5-.5s.22-.5.5-.5h1.13l-.56-.98c-.14-.24-.06-.55.18-.69.24-.13.54-.05.68.19l.57.98.57-.98c.13-.24.44-.32.68-.19.24.14.32.45.18.69l-.56.98h1.13c.28 0 .5.22.5.5zm1.62 3.54s0-.01 0-.02h-1.12c-.28 0-.5-.22-.5-.5 0-.27.22-.5.5-.5h1.13l-.56-.98c-.14-.24-.06-.54.18-.68s.54-.06.68.18l.57.98.57-.98c.13-.24.44-.32.68-.18s.32.44.18.68l-.57.98h1.14c.27 0 .5.23.5.5 0 .28-.23.5-.5.5h-1.14l.57.99c.14.23.06.54-.18.68s-.55.05-.68-.18l-.56-.97c-.01 0-.02 0-.02 0l-.56.97c-.14.23-.44.32-.68.18s-.32-.45-.18-.68zm2.61-4.38c-.24-.13-.32-.44-.18-.68l.55-.96c0-.01 0-.01 0-.02h-1.12c-.28 0-.5-.22-.5-.5s.22-.5.5-.5h1.14l-.57-.98c-.14-.24-.06-.55.18-.69.24-.13.55-.05.68.19l.57.98.57-.98c.14-.24.44-.32.68-.19.24.14.32.45.18.69l-.56.98h1.13c.28 0 .5.22.5.5s-.22.5-.5.5h-1.13l.56.98c.14.24.06.55-.18.68-.24.14-.54.06-.68-.18l-.56-.97c-.01 0-.01.01-.02.01l-.56.96c-.13.24-.44.32-.68.18z" fill="#796886"/></svg>