<svg height="40" viewBox="0 0 39 40" width="39" xmlns="http://www.w3.org/2000/svg"><path d="m38.59 33.81c-.15.48-.69.71-1.12.57 0 0-.44-.16-.88-.31-.43-.16-.86-.33-.86-.33s.05.47.1.94c.02.46.04.92.04.92.02.46-.38.88-.86.92-.48.05-.84-.31-.84-.77 0 0-.01-.47-.02-.93-.02-.46-.04-.93-.04-.93s-.38.25-.76.5c-.19.13-.39.24-.54.32s-.25.13-.25.13c-.4.21-.88.05-1.07-.35-.2-.4-.07-.88.29-1.07 0 0 .1-.05.24-.12s.32-.17.5-.29c.35-.23.7-.46.7-.46s-.39-.23-.77-.45-.75-.45-.75-.45c-.36-.23-.51-.72-.38-1.08.14-.36.54-.46.91-.24 0 0 .38.22.77.43.38.2.76.39.76.39l.02-.02s-.09-.43-.17-.87c-.1-.42-.2-.84-.2-.84-.11-.42.13-.74.49-.8.37-.05.79.22.92.64 0 0 .12.43.25.85.11.43.2.85.2.85.01 0 .01.02.02.02.04.04 1.2-1.15 1.2-1.15.29-.29.8-.28 1.12.02.33.3.35.8.03 1.12 0 0-1.28 1.29-1.32 1.25 0 0 .44.17.88.3s.87.25.87.25c.44.12.68.57.52 1.04zm-7.01-20.53c.17.1.26.33.16.52-.09.18-.3.24-.47.14 0 0-.17-.1-.33-.2-.18-.09-.36-.18-.36-.18.03 0 .02.78.02.78 0 .2-.16.34-.35.33-.18-.01-.34-.16-.34-.34 0 0 .01-.74-.01-.74 0 0-.16.09-.33.19-.16.09-.33.19-.33.19-.17.08-.38.03-.47-.11-.09-.13-.07-.31.1-.4 0 0 .15-.1.31-.2s.31-.2.31-.2v-.01s-.17-.07-.34-.14c-.18-.06-.35-.13-.35-.13-.18-.06-.26-.22-.2-.37.07-.16.27-.25.44-.19 0 0 .18.05.36.11s.36.13.36.13l.01-.01-.13-.72c-.03-.18.07-.35.25-.4.18-.04.39.06.42.25l.14.78s.15-.12.3-.25.29-.26.29-.26c.14-.13.36-.11.49.06.13.16.12.4-.03.52 0 0-.16.13-.31.26-.16.11-.32.23-.32.23s.18.09.36.18c.17.09.35.18.35.18zm-2.58 6.24c.15.08.21.27.13.42 0 0-.08.16-.16.31-.09.16-.19.3-.19.3s.18.01.36.02h.35c.17 0 .32.14.31.33-.02.18-.17.32-.35.31l-.71-.03.3.66c.06.17-.03.36-.2.43s-.35-.01-.41-.18l-.25-.66-.44.54c-.11.13-.3.15-.43.03-.12-.12-.14-.32-.04-.44l.42-.51-.69-.14c-.16-.03-.28-.19-.26-.34.01-.16.15-.25.32-.22l.66.1v-.01l-.33-.59c-.08-.15-.04-.31.11-.37.14-.06.32-.01.41.14 0 0 .09.14.18.29.08.14.16.29.16.29h.01s.1-.13.18-.27c.07-.15.15-.29.15-.29.07-.15.26-.2.41-.12zm-1.38-14.35s-.21.06-.42.11c-.2.06-.41.12-.41.12l.62.62c.15.16.14.4-.02.54-.16.13-.39.13-.53-.01l-.58-.59s-.06.21-.11.42c-.07.2-.13.41-.13.41-.06.19-.26.32-.44.29-.18-.04-.28-.22-.23-.41 0 0 .05-.2.09-.4.05-.21.09-.41.09-.41l-.01-.01s-.19.08-.38.16c-.19.09-.37.17-.37.17-.19.09-.37 0-.44-.17s.02-.4.2-.5c0 0 .19-.09.37-.19.19-.08.38-.17.38-.17v-.01c.02-.02-.66-.47-.66-.47-.17-.11-.21-.35-.1-.53s.34-.23.52-.11c0 0 .73.49.71.51 0 0 .03-.22.05-.44s.03-.43.03-.43c.02-.22.2-.37.43-.34.23.02.38.25.36.46 0 0-.03.22-.05.45-.03.21-.06.43-.06.43s.2-.07.41-.14.42-.13.42-.13c.21-.07.45.06.52.29.07.22-.05.44-.26.48zm-3.98 30.01c-.15.36-.31.73-.31.73.01 0 .01.02.01.02l1.5-.13c.37-.05.72.2.79.6.07.39-.18.78-.58.84l-1.63.14s.24.34.48.68c.24.33.49.67.49.67.25.32.18.78-.18 1.01-.37.23-.87.16-1.1-.18 0 0-.24-.35-.48-.71-.22-.36-.44-.71-.44-.71s-.21.35-.43.71c-.22.35-.45.7-.45.7-.22.36-.73.45-1.09.2-.37-.24-.46-.69-.22-1.02 0 0 .24-.33.48-.66.22-.34.45-.67.45-.67l-1.63-.17c-.4-.03-.67-.42-.61-.82.06-.39.4-.64.78-.62l1.52.16s-.17-.37-.34-.75c-.15-.37-.31-.75-.31-.75-.15-.36 0-.79.29-.96.3-.16.65-.02.81.32 0 0 .17.35.33.7.18.35.36.7.36.7h.03s.17-.35.34-.7c.15-.34.31-.69.31-.69.15-.36.49-.52.8-.34.3.18.45.61.32.97 0 0-.14.36-.29.73zm-.38-10.27-.6.17.45.45c.11.11.11.29-.01.4-.11.12-.31.12-.42 0l-.44-.48-.23.6c-.06.16-.25.22-.4.15-.16-.06-.22-.23-.15-.37l.25-.58-.63.06c-.15.02-.28-.1-.29-.26-.01-.15.1-.29.25-.3l.59-.05-.36-.52c-.08-.13-.06-.31.05-.39.1-.09.25-.06.33.06l.37.49.01-.01.15-.58c.04-.14.16-.21.29-.18.13.05.22.2.19.35 0 0-.14.61-.13.6v.01l.56-.16c.14-.04.29.05.34.19.06.15-.02.31-.17.35zm-3.61-22.29s-.89-.18-.89-.16c0 0 .08.22.17.44.07.23.15.46.15.46.07.22-.03.47-.21.55-.19.09-.4.01-.48-.21 0 0-.08-.22-.16-.43-.09-.22-.19-.44-.19-.44h-.01s-.12.2-.23.39c-.11.2-.23.4-.23.4-.1.21-.32.28-.49.16s-.24-.38-.14-.59c0 0 .1-.2.21-.41.11-.2.22-.41.22-.41l-.01-.02h-.89c-.22.01-.41-.16-.43-.4-.02-.23.15-.45.39-.46l.96.01s-.12-.21-.24-.42c-.13-.21-.26-.43-.26-.43-.12-.2-.06-.46.16-.58s.51-.04.63.16c0 0 .13.21.24.44.12.22.23.44.23.44s.14-.19.28-.39c.15-.2.3-.39.3-.39.14-.19.44-.23.64-.09.21.16.24.44.08.61 0 0-.15.19-.3.37-.15.2-.3.39-.3.39.01-.02.96.17.96.17.23.05.37.27.32.5s-.26.38-.48.34zm-3.97 20.51.46-.27c.11-.08.25-.05.3.06.06.11.02.26-.09.34l-.46.3v.01l.47.26c.12.06.16.21.11.33-.06.13-.2.18-.33.12l-.5-.28.02.58c.01.14-.1.25-.25.25-.14 0-.27-.12-.28-.25l.01-.59-.52.24c-.13.06-.29 0-.36-.13-.07-.14 0-.29.12-.34l.53-.23s-.12-.08-.24-.16c-.11-.1-.22-.19-.22-.19-.1-.09-.12-.25-.03-.35.09-.11.24-.12.34-.04 0 .01.42.34.43.33 0 0 .07-.55.07-.55.03-.14.14-.23.27-.23s.21.11.19.24l-.05.55zm-1.92-10.31-.43-.07v.01l.21.39c.06.1.03.21-.06.24-.1.04-.22.01-.28-.09l-.22-.38h-.01c-.01-.01-.22.36-.21.37-.05.09-.17.12-.27.07s-.14-.17-.09-.27c-.01-.01.23-.41.24-.4l-.47-.02c-.11 0-.21-.09-.2-.21s.11-.21.23-.21l.46.03-.19-.44c-.04-.11.02-.23.13-.28.11-.04.23.01.27.12l.16.43.29-.35c.07-.09.2-.1.28-.02s.1.21.03.29l-.28.33.45.09c.11.03.19.13.18.23s-.1.16-.22.14zm-1.1 4.84c.07.09.04.21-.05.28l-.39.29.47.14c.11.03.17.14.14.24s-.15.17-.27.15l-.49-.12h-.01l.14.46c.03.12-.04.24-.16.28-.11.04-.24-.03-.27-.15l-.15-.5-.35.37c-.09.09-.23.09-.32-.01-.1-.1-.1-.26 0-.35l.38-.35-.49-.2c-.12-.05-.17-.2-.12-.33s.18-.17.3-.12l.46.22-.05-.52c-.01-.12.08-.23.21-.23.12 0 .23.09.24.21l.05.48.41-.28c.11-.06.25-.04.32.04zm-1.79-12.74c.21.15.29.44.19.63-.1.21-.33.28-.54.14 0 0-.22-.13-.44-.26-.23-.13-.45-.26-.45-.26l-.02.01s.04.26.07.51c.04.24.09.51.09.51.05.25-.08.46-.3.47-.23.02-.47-.16-.53-.41 0 0-.06-.25-.11-.5-.05-.26-.1-.51-.1-.51l-.01-.02-.77.63c-.17.17-.45.16-.64-.03-.18-.19-.18-.5.01-.68 0 0 .2-.17.41-.34s.42-.34.42-.34-.25-.1-.51-.2c-.25-.09-.51-.18-.51-.18-.25-.09-.38-.37-.27-.63s.42-.4.66-.31c0 0 .25.09.51.21.25.12.5.23.5.23s-.01-.27-.03-.54c0-.28-.01-.55-.01-.55 0-.27.22-.53.51-.53s.5.22.49.48c0 0-.01.27-.02.54.01.27.01.55.01.55-.01-.03.94-.52.94-.52.23-.12.51-.02.62.22.11.23.03.52-.19.63 0 0-.89.46-.87.48 0 0 .22.14.44.27.23.15.45.3.45.3zm-3.66 28.14s.35-.12.7-.24c.34-.12.68-.25.68-.25l-1.13-.95c-.27-.25-.27-.68-.02-.93.25-.26.63-.26.88-.03l1.07.89s.06-.36.13-.72c.07-.35.15-.7.15-.7.07-.34.4-.58.72-.55.31.03.5.33.43.68 0 0-.07.35-.12.7-.05.34-.09.69-.09.69l.02.01s.31-.17.62-.34c.3-.17.6-.34.6-.34.3-.17.63-.08.75.23.13.29.03.67-.27.86 0 0-.3.2-.59.37-.3.17-.6.34-.6.34l-.01.03s.28.2.58.37c.3.16.6.32.6.32.29.16.41.55.25.88-.15.32-.54.44-.86.27 0 0-.32-.18-.65-.36-.32-.18-.62-.4-.62-.4s-.01.38-.02.75c-.01.39.01.76.01.76.01.35-.29.65-.67.63-.38-.04-.7-.38-.69-.75 0 0 .01-.38.02-.75.02-.37.04-.74.04-.74s-.34.15-.69.3c-.35.14-.69.26-.69.26-.33.12-.74-.08-.89-.44-.16-.36.02-.73.36-.85zm-2.11-8.87s-.31-.04-.62-.07c-.32-.04-.64-.09-.64-.09 0 .01-.01.01-.02.02l.46 1.15c.13.27.02.6-.27.74-.28.15-.65.03-.79-.27l-.49-1.25s-.21.26-.41.52c-.2.27-.4.53-.4.53-.19.27-.56.31-.83.08-.26-.24-.32-.65-.12-.91 0 0 .22-.26.44-.52.22-.25.44-.51.44-.51s-.32-.09-.64-.18c-.33-.1-.66-.2-.66-.2-.32-.1-.52-.47-.41-.82.1-.34.43-.5.73-.38 0 0 .32.11.63.23.31.1.62.21.62.21l-.25-1.32c-.07-.32.15-.62.48-.65.31-.04.6.17.66.47l.24 1.23s.25-.21.5-.42.5-.41.5-.41c.25-.19.61-.17.81.02.19.2.17.5-.05.7 0 0-.23.21-.46.42-.23.22-.46.43-.46.43l.01.02s.31.06.61.12c.31.04.61.09.61.09.32.04.52.28.45.55-.06.28-.36.49-.67.47zm.08-11.24s-.3.02-.57.06c-.28.04-.55.09-.55.09v.02s.2.2.4.41c.21.2.41.39.41.39.21.2.22.47.02.64-.19.17-.51.17-.73-.01 0 0-.23-.19-.43-.39-.21-.19-.41-.39-.41-.39h-.03s-.09.26-.14.53c-.05.28-.1.55-.1.55-.05.27-.32.44-.61.39-.28-.05-.47-.32-.42-.61 0 0 .06-.29.12-.59.05-.29.15-.58.15-.58s-.29.08-.58.16c-.3.08-.57.17-.57.17-.28.09-.57-.07-.66-.38-.06-.3.12-.62.41-.7 0 0 .29-.08.58-.16.29-.06.58-.13.58-.13s-.2-.24-.4-.47c-.2-.24-.38-.48-.38-.48-.17-.24-.12-.6.12-.8s.56-.15.74.09c0 0 .18.25.36.5.18.23.36.47.36.47l.45-1.11c.13-.26.45-.35.71-.22s.36.44.24.68l-.42 1.04s.29-.03.58-.06c.29-.02.58-.04.58-.04.28-.02.54.18.6.44.05.25-.13.46-.41.49z" fill="#796886"/></svg>