<svg height="40" viewBox="0 0 40 40" width="40" xmlns="http://www.w3.org/2000/svg"><path d="m39 21h-6c-.55 0-1-.45-1-1s.45-1 1-1h6c.56 0 1 .45 1 1s-.44 1-1 1zm-9.1-9.49c-.39.4-1.02.4-1.41 0-.4-.39-.4-1.02 0-1.41l4.24-4.24c.39-.39 1.02-.39 1.41 0s.39 1.02 0 1.41zm-9.9 18.49c-5.52 0-10-4.48-10-10 0-5.53 4.48-10 10-10s10 4.47 10 10c0 5.52-4.48 10-10 10zm0-18c-4.42 0-8 3.58-8 8s3.58 8 8 8 8-3.58 8-8-3.58-8-8-8zm0-4c-.55 0-1-.45-1-1v-6c0-.55.45-1 1-1s1 .45 1 1v6c0 .55-.45 1-1 1zm-9.89 3.51-4.25-4.24c-.39-.39-.39-1.02 0-1.42.39-.39 1.03-.39 1.42 0l4.24 4.25c.39.39.39 1.02 0 1.41s-1.02.39-1.41 0zm-2.11 8.49c0 .55-.44 1-1 1h-6c-.55 0-1-.45-1-1s.45-1 1-1h6c.56 0 1 .45 1 1zm2.1 8.49c.39-.4 1.02-.4 1.41 0 .4.39.4 1.02 0 1.41l-4.24 4.24c-.39.39-1.02.39-1.41 0s-.39-1.02 0-1.41zm9.9 3.51c.55 0 1 .45 1 1v6c0 .55-.45 1-1 1s-1-.45-1-1v-6c0-.55.45-1 1-1zm9.9-3.52 4.25 4.24c.39.4.39 1.03 0 1.42s-1.03.39-1.42 0l-4.24-4.24c-.39-.39-.39-1.03 0-1.42s1.02-.39 1.41 0z" fill="#796886"/></svg>