<svg height="43" viewBox="0 0 49 43" width="49" xmlns="http://www.w3.org/2000/svg"><path d="m35.04 35.99c-.01 0-.75 0-1.99 0-.01 0-.03.01-.05.01-.55 0-1-.45-1-1s.45-1 1-1v-.01h2c6.71-.25 12-5.74 12-12.49 0-6.89-5.61-12.5-12.5-12.5-5.52 0-10.46 3.7-12 9.01-.08.27-.27.5-.53.62-.26.13-.56.13-.83.02-1-.43-2.06-.65-3.15-.65-3.53 0-6.69 2.37-7.68 5.76-.08.28-.27.5-.53.63-.26.12-.56.12-.82.01-.62-.26-1.28-.4-1.96-.4-2.76 0-5 2.24-5 5s2.24 5 5 5h2c.55 0 1 .45 1 1s-.45 1-1 1c-.71 0-1.38 0-2 0-3.86 0-7-3.14-7-7 0-2.36 1.18-4.44 2.97-5.7-1.03-.78-1.95-1.69-2.72-2.76-.23-.32-.25-.73-.06-1.07s.55-.53.94-.51l.17.01c.18.01.35.03.54.03 6.1 0 11.07-4.94 11.07-11.01 0-2.3-.71-4.5-2.06-6.38-.23-.32-.25-.73-.07-1.07.19-.34.56-.54.95-.51 6.41.4 11.51 5.39 12.16 11.62 2.69-2.88 6.51-4.65 10.61-4.65 7.99 0 14.5 6.5 14.5 14.5 0 7.83-6.13 14.2-13.96 14.49zm-21.42-33.65c.86 1.75 1.31 3.67 1.31 5.65 0 6.7-5.13 12.24-11.7 12.93.57.54 1.19.98 1.85 1.38.61-.17 1.25-.3 1.92-.3.59 0 1.17.07 1.74.22 1.51-3.71 5.18-6.22 9.25-6.22 1 0 1.98.15 2.93.44.26-.71.58-1.4.95-2.05.06-.46.1-.92.1-1.4 0-5.09-3.53-9.44-8.35-10.65zm5.46 32.9c.55-.89 4.99-8 4.99-8 .14-.23.44-.3.67-.16.23.13.32.41.2.65l-2.94 6.27s3.04.01 2.47.01c.08-.01.17.01.25.06.24.14.34.46.2.69-.55.89-4.99 8-4.99 8-.14.23-.44.3-.67.16-.23-.13-.32-.41-.2-.65l2.94-6.27s-3.15-.01-2.47-.01c-.08.01-.17-.01-.25-.06-.24-.14-.34-.46-.2-.69z" fill="#796886"/></svg>