<svg height="43" viewBox="0 0 49 43" width="49" xmlns="http://www.w3.org/2000/svg"><path d="m21.99 25.04c0-.01-.01-.02-.01-.04 0-.01.01-.03.01-.04zm13.05 3.95c-.01 0-.37 0-.98 0-.02 0-.04.01-.06.01-.55 0-1-.45-1-1s.45-1 1-1v-.01h1c6.71-.25 12-5.74 12-12.49 0-6.89-5.61-12.5-12.5-12.5-5.52 0-10.46 3.7-12 9.01-.08.27-.27.5-.53.62-.26.13-.56.13-.83.02-1-.43-2.06-.65-3.15-.65-3.53 0-6.69 2.37-7.68 5.76-.08.28-.27.5-.53.63-.26.12-.56.12-.82.01-.62-.26-1.28-.4-1.96-.4-2.76 0-5 2.24-5 5s2.24 5 5 5h14.99v.01h3.99.01c1.1 0 2-.9 2-2 0-1.11-.9-2-2-2-.55 0-1-.45-1-1s.43-.98.97-1h-.04c.02 0 .04-.01.06-.01 2.21 0 4.01 1.8 4.01 4 0 2.21-1.8 4-4.01 4-.03 0-.07-.01-.11-.01-5.36.01-12 .01-16.87.01-.71 0-1.38 0-2 0-3.86 0-7-3.14-7-7s3.14-7 7-7c.59 0 1.17.07 1.74.22 1.51-3.71 5.18-6.22 9.25-6.22 1 0 1.98.15 2.93.44 2.09-5.61 7.53-9.44 13.58-9.44 7.99 0 14.5 6.5 14.5 14.5 0 7.83-6.13 14.2-13.96 14.49zm-30.07 2.02h11.01 1.04 18.99c.11 0 .22.03.32.06.22-.03.45-.07.68-.07 2.76 0 5 2.24 5 5s-2.23 4.99-4.97 5c-.01 0-.02.01-.03.01-.55 0-1-.45-1-1s.44-.99.99-1h.01c1.66 0 3-1.35 3-3 0-1.66-1.34-3-3-3h-.01v-.01h-5v.01h-14.98-1.04-11.01c-.54 0-.98-.45-.98-1 0-.56.44-1 .98-1zm8.02 4 13.01-.01c.02 0 .04.01.06.01 2.18.04 3.93 1.81 3.93 3.99 0 2.21-1.79 3.99-3.99 4 0 0-.01.01-.01.01-.55 0-1-.45-1-1 0-.56.45-1 1-1h.01c1.1-.01 1.99-.9 1.99-2s-.89-2-1.99-2v-.01h-6l-7.01.01c-.55 0-1-.45-1-1 0-.56.45-1 1-1z" fill="#796886"/></svg>