<svg height="53" viewBox="0 0 54 53" width="54" xmlns="http://www.w3.org/2000/svg"><path d="m26.99 35.04c0-.01-.01-.02-.01-.04 0-.01.01-.03.01-.04zm13.05 3.95c-.01 0-.37 0-.98 0-.02 0-.04.01-.06.01-.55 0-1-.45-1-1s.45-1 1-1v-.01h1c6.71-.25 12-5.74 12-12.49 0-6.89-5.61-12.5-12.5-12.5-5.52 0-10.46 3.7-12 9.01-.08.27-.27.5-.53.62-.26.13-.56.13-.83.02-1-.43-2.06-.65-3.15-.65-3.53 0-6.69 2.37-7.68 5.76-.08.28-.27.5-.53.63-.26.12-.56.12-.82.01-.62-.26-1.28-.4-1.96-.4-2.76 0-5 2.24-5 5s2.24 5 5 5h14.99v.01h3.99.01c1.1 0 2-.9 2-2 0-1.11-.9-2-2-2-.55 0-1-.45-1-1s.43-.98.97-1h-.04c.02 0 .04-.01.06-.01 2.21 0 4 1.8 4 4 0 2.21-1.79 4-4 4-.03 0-.07-.01-.11-.01-5.36.01-12 .01-16.87.01-.71 0-1.38 0-2 0-3.86 0-7-3.14-7-7 0-3.66 2.83-6.64 6.42-6.94-.89-1.49-1.42-3.21-1.42-5.06 0-5.53 4.48-10 10-10 3.68 0 6.87 2 8.61 4.96 2.7-3.07 6.64-4.96 10.89-4.96 7.99 0 14.5 6.5 14.5 14.5 0 7.83-6.13 14.2-13.96 14.49zm-20.04-26.99c-4.42 0-8 3.58-8 8 0 1.92.68 3.68 1.81 5.06 1.56-3.62 5.17-6.06 9.18-6.06 1 0 1.98.15 2.93.44.36-.97.82-1.87 1.36-2.72-1.25-2.78-4.03-4.72-7.28-4.72zm9.9-.49c-.39.39-1.02.39-1.41 0-.4-.39-.4-1.02 0-1.41l4.24-4.24c.39-.39 1.02-.39 1.41 0s.39 1.02 0 1.41zm-9.9-3.51c-.55 0-1-.45-1-1v-6c0-.55.45-1 1-1s1 .45 1 1v6c0 .55-.45 1-1 1zm-9.89 3.51-4.25-4.24c-.39-.39-.39-1.02 0-1.42.39-.39 1.03-.39 1.42 0l4.24 4.25c.39.39.39 1.02 0 1.41s-1.02.39-1.41 0zm-2.11 8.49c0 .55-.44 1-1 1h-6c-.55 0-1-.45-1-1s.45-1 1-1h6c.56 0 1 .45 1 1zm1.97 21.01h11.01 1.04 18.99c.11 0 .22.03.32.06.22-.03.45-.07.68-.07 2.76 0 5 2.24 5 5s-2.23 4.99-4.97 5c-.01 0-.02.01-.03.01-.55 0-1-.45-1-1s.44-.99.99-1h.01c1.66 0 3-1.35 3-3 0-1.66-1.34-3-3-3h-.01v-.01h-5v.01h-14.98-1.04-11.01c-.54 0-.98-.45-.98-1 0-.56.44-1 .98-1zm8.02 4 13.01-.01c.02 0 .04.01.06.01 2.18.04 3.92 1.81 3.92 3.99 0 2.21-1.78 3.99-3.98 4 0 0-.01.01-.01.01-.55 0-1-.45-1-1 0-.56.45-1 1-1h.01c1.1-.01 1.99-.9 1.99-2s-.89-2-1.99-2v-.01h-6l-7.01.01c-.55 0-1-.45-1-1 0-.56.45-1 1-1z" fill="#796886"/></svg>