<svg height="50" viewBox="0 0 49 50" width="49" xmlns="http://www.w3.org/2000/svg"><path d="m21.99 32.08c0-.03-.01-.05-.01-.08 0-.01.01-.03.01-.04zm13.05 3.91c-.01 0-.37 0-.98 0-.02 0-.04.01-.06.01-.55 0-1-.45-1-1s.45-1 1-1v-.01h1c6.71-.25 12-5.74 12-12.49 0-6.89-5.61-12.5-12.5-12.5-5.52 0-10.46 3.7-12 9.01-.08.27-.27.5-.53.62-.26.13-.56.13-.83.02-1-.43-2.06-.65-3.15-.65-3.53 0-6.69 2.37-7.68 5.76-.08.28-.27.5-.53.63-.26.12-.56.12-.82.01-.62-.26-1.28-.4-1.96-.4-2.76 0-5 2.24-5 5s2.24 5 5 5h14.99v.01h3.99.01c1.1 0 2-.9 2-2 0-1.11-.9-2-2-2-.55 0-1-.45-1-1s.43-.98.97-1h-.04c.02 0 .04-.01.06-.01 2.21 0 4.01 1.8 4.01 4 0 2.21-1.8 4-4.01 4-.03 0-.07-.01-.11-.01-5.36.01-12 .01-16.87.01-.71 0-1.38 0-2 0-3.86 0-7-3.14-7-7 0-2.36 1.18-4.44 2.97-5.7-1.03-.78-1.95-1.69-2.72-2.76-.23-.32-.25-.73-.06-1.07s.55-.53.94-.51l.17.01c.18.01.35.03.54.03 6.1 0 11.07-4.94 11.07-11.01 0-2.3-.71-4.5-2.06-6.38-.23-.32-.25-.73-.07-1.07.19-.34.56-.54.95-.51 6.41.4 11.51 5.39 12.16 11.62 2.69-2.88 6.51-4.65 10.61-4.65 7.99 0 14.5 6.5 14.5 14.5 0 7.83-6.13 14.2-13.96 14.49zm-21.42-33.65c.86 1.75 1.31 3.67 1.31 5.65 0 6.7-5.13 12.24-11.7 12.93.57.54 1.19.98 1.85 1.38.61-.17 1.25-.3 1.92-.3.59 0 1.17.07 1.74.22 1.51-3.71 5.18-6.22 9.25-6.22 1 0 1.98.15 2.93.44.26-.71.58-1.4.95-2.05.06-.46.1-.92.1-1.4 0-5.09-3.53-9.44-8.35-10.65zm-8.65 35.67h11.01 1.04 18.99c.11 0 .22.03.32.06.22-.03.45-.07.68-.07 2.76 0 5 2.24 5 5s-2.23 4.99-4.97 5c-.01 0-.02.01-.03.01-.55 0-1-.45-1-1s.44-.99.99-1h.01c1.66 0 3-1.35 3-3 0-1.66-1.34-3-3-3h-.01v-.01h-5v.01h-14.98-1.04-11.01c-.54 0-.98-.45-.98-1 0-.56.44-1 .98-1zm8.02 4 13.01-.01c.02 0 .04.01.06.01 2.18.04 3.93 1.81 3.93 3.99 0 2.21-1.79 3.99-3.99 4 0 0-.01.01-.01.01-.55 0-1-.45-1-1 0-.56.45-1 1-1h.01c1.1-.01 1.99-.9 1.99-2s-.89-2-1.99-2v-.01h-6l-7.01.01c-.55 0-1-.45-1-1 0-.56.45-1 1-1z" fill="#796886"/></svg>